# xmcd CD database file
#
# Track frame offsets:
#	150
#	18095
#	33137
#	53207
#	65997
#	83620
#	97060
#	102800
#	122760
#	139277
#
# Disc length: 2050 seconds
#
# Revision: 0
# Processed by: cddbd v1.5.1PL0 Copyright (c) Steve Scherf et al.
# Submitted via: CDex 1.51
#
DISCID=8108000a
DTITLE=COIL - AUTO REVERSE
DYEAR=2001
DGENRE=Pop
TTITLE0=右脳の人
TTITLE1=Type 1
TTITLE2=Smile Again
TTITLE3=イモラの空
TTITLE4=明け暮れ
TTITLE5=ねてようび
TTITLE6=トマトジュース
TTITLE7=ひりひりした痛み
TTITLE8=夏の日'79
TTITLE9=ル・コルビュジエ
EXTD=YEAR: 2001
EXTT0=
EXTT1=
EXTT2=
EXTT3=
EXTT4=
EXTT5=
EXTT6=
EXTT7=
EXTT8=
EXTT9=
PLAYORDER=
